<?xml version="1.0" encoding="UTF-8"?>
<svg id="Layer_2" data-name="Layer 2" xmlns="http://www.w3.org/2000/svg" viewBox="0 0 43.62 36.48">
  <defs>
    <style>
      .cls-1 {
        fill: #fffde1;
        stroke: #ffe8b0;
        stroke-linejoin: round;
        stroke-width: .97px;
      }

      .cls-2 {
        fill: #ffa100;
        stroke-width: 0px;
      }
    </style>
  </defs>
  <g id="OBJECTS">
    <g>
      <path class="cls-1" d="M43.12,21.23c-.17-3.29-2.19-6.46-5.43-7.44-1.89-.57-4.04-.4-5.97-.05-.97.18-1.93.45-2.81.87.85-2.01,1.18-4.23.92-6.39-.3-2.51-1.35-5.12-3.54-6.56-2.03-1.33-4.75-1.53-6.96-.55-2.23.99-3.91,3-4.61,5.33-.52,1.74-.47,3.6.04,5.34-1.24-1.33-2.81-2.33-4.6-2.74-2.42-.54-5.14.08-6.92,1.85-1.05,1.04-1.73,2.43-2.2,3.82-.47,1.37-.7,2.85-.49,4.29.36,2.55,2.13,4.84,4.51,5.83,2.2.91,4.75.64,6.75-.58-1.42,3.03-.92,6.8,1.48,9.25,1.39,1.41,3.3,2.32,5.27,2.48,2,.17,4.11-.4,5.29-2.12,1.06-1.53,1.27-3.48,1.16-5.33,1.42,2.06,3.7,3.47,6.18,3.89,3.04.52,6.08-.55,8.33-2.61,2.36-2.17,3.75-5.36,3.59-8.57Z"/>
      <path class="cls-2" d="M28.59,18.69c.29-.12.23-.58-.11-.56-1.13.06-2.34-.22-3.16-1.06-.68-.71-.99-1.81-.6-2.73.12-.28-.27-.61-.47-.32-.71,1.03-1.78,1.85-3.04,2.04-1.19.18-2.46-.26-3.21-1.21.11-.28-.26-.59-.46-.31-.03.04-.06.08-.09.11-.03.02-.05.05-.07.09-.85,1.06-1.99,1.82-3.31,2.18-.26.07-.23.41-.04.53,1.72,1.06,2.48,3.4,1.71,5.26-.1.25.17.55.42.37,1.22-.89,2.79-1.29,4.27-.89,1.44.39,2.61,1.58,2.93,3.05.1.36.62.17.55-.18-.39-1.37.11-2.85,1-3.91.97-1.15,2.32-1.88,3.69-2.45Z"/>
    </g>
  </g>
</svg>