<?xml version="1.0" encoding="UTF-8"?>
<svg id="Layer_2" data-name="Layer 2" xmlns="http://www.w3.org/2000/svg" viewBox="0 0 49.49 52.87">
  <defs>
    <style>
      .cls-1 {
        fill: #ffefcf;
      }

      .cls-1, .cls-2, .cls-3 {
        stroke-width: 0px;
      }

      .cls-2 {
        fill: #ffa100;
      }

      .cls-3 {
        fill: #fffde1;
      }
    </style>
  </defs>
  <g id="OBJECTS">
    <g>
      <path class="cls-3" d="M.16,30.17c.79,3.84,4.12,7.02,8.03,7.39-1.82,3.24-1.43,7.35.56,10.47,2.1,3.3,5.92,4.92,9.76,4.85,1.99-.04,3.99-.53,5.77-1.41.93-.46,1.77-1.04,2.61-1.66.96-.71,1.94-1.39,3.16-1.49,1.28-.1,2.54.32,3.79.5,1.03.14,2.08.15,3.1,0,2.05-.27,4.04-1.08,5.69-2.34,2.55-1.95,4.12-4.95,4.45-8.1,2.21-1.53,3.1-4.49,1.84-6.97-1.37-2.69-4.32-3.83-7.2-3.61.32-1.86.02-3.82-.94-5.48-1.15-2-3.19-3.41-5.44-3.89.85-2.46,1.06-5.14.52-7.69C34.25,3.15,25.88-1.93,18.46.7c-3.51,1.24-6.48,4.03-7.9,7.47-1.64,3.98-.83,8.29.62,12.2-1.79-.46-3.69-.31-5.42.37C2.01,22.22-.69,26.05.16,30.17Z"/>
      <path class="cls-2" d="M5.86,26.93c.12.99.79,1.79,1.57,2.36,1.94,1.42,4.53,2.19,6.85,2.7,1.67.37,3.37.55,5.08.57-.7.47-1.32,1.06-1.8,1.76-.85,1.24-1.59,3.26-.34,4.52,1.36,1.36,3.56.35,4.78-.66,1.31-1.08,2.22-2.52,3.06-3.98.86.62,1.18,1.84,1.68,2.73.6,1.07,1.5,1.95,2.56,2.57,1.01.59,2.33,1.04,3.48.61,1.04-.4,1.64-1.42,1.96-2.43.39-1.22.52-2.43,1.3-3.48.62-.84,1.39-1.63,1.7-2.65.68-2.25-1.47-3.99-3.54-4.15-2.53-.19-5.59,1.64-7.94.14-.14-.09-.29-.1-.42-.06.14-1.34.93-2.63,1.53-3.78.82-1.56,1.47-3.2,1.93-4.91.74-2.75,1.08-6.08-1.11-8.28-.85-.85-2.01-1.38-3.22-1.3-1.24.07-2.33.78-3.15,1.67-1.82,1.98-2.6,4.93-2.71,7.56-.09,2.17.29,4.32,1.11,6.32-1.81-.95-3.98-1.21-6-1.37-1.37-.11-2.77-.18-4.14-.09-1.13.08-2.29.35-3.15,1.12-.71.64-1.19,1.55-1.08,2.52Z"/>
      <path class="cls-1" d="M3.81,30.86c1.41,2.52,4.36,4.65,7.36,3.89.37-.09.7.15.66.54-.33,3.57,2.07,7.24,5.54,8.25,3.35.97,7.23-.6,8.97-3.61.14-.24.39-.29.61-.23.23-.09.53-.03.67.26,1.25,2.61,4.58,2.99,7.02,2.06,1.37-.52,2.68-1.38,3.74-2.4,1.07-1.03,2-2.37,1.67-3.92-.07-.32.28-.58.57-.54,1.7.27,3.35-.94,3.87-2.54.55-1.68-.09-3.47-1.15-4.8,2.31.24,4.47,1.39,5.58,3.57,1.26,2.47.36,5.44-1.84,6.97-.33,3.15-1.9,6.14-4.45,8.1-1.64,1.26-3.64,2.07-5.69,2.34-1.03.14-2.08.13-3.1,0-1.25-.17-2.51-.6-3.79-.5-1.22.1-2.21.78-3.16,1.49-.84.62-1.68,1.2-2.61,1.66-1.78.88-3.78,1.37-5.77,1.41-3.84.08-7.66-1.54-9.76-4.85-1.98-3.11-2.38-7.23-.56-10.47-3.91-.36-7.24-3.55-8.03-7.39-.54-2.64.37-5.15,2.09-7.01,0,2.67.26,5.39,1.56,7.71Z"/>
      <path class="cls-1" d="M11.19,20.37c-1.45-3.91-2.26-8.22-.62-12.2,1.42-3.44,4.39-6.23,7.9-7.47,1.14-.4,2.3-.6,3.46-.66-2.86,1.91-5.12,4.7-6.36,7.91-1.64,4.24-1.37,9.08.57,13.17.16.35-.2.72-.54.66-1.97-.31-4.09-.68-5.87-1.65.5.04.99.11,1.47.24Z"/>
    </g>
  </g>
</svg>