<?xml version="1.0" encoding="UTF-8"?>
<svg id="Layer_2" data-name="Layer 2" xmlns="http://www.w3.org/2000/svg" xmlns:xlink="http://www.w3.org/1999/xlink" version="1.1" viewBox="0 0 164.6 265.7">
  <defs>
    <style>
      .cls-1 {
        fill: #ffe305;
      }

      .cls-1, .cls-2 {
        stroke-width: 0px;
      }

      .cls-3 {
        fill: #000;
        font-family: Downcome, Downcome;
        font-size: 21px;
      }

      .cls-3, .cls-4 {
        isolation: isolate;
      }

      .cls-2 {
        fill: #ffa100;
      }

      .cls-5 {
        fill: #fffde1;
        stroke: #ffe8b0;
        stroke-linejoin: round;
        stroke-width: .5px;
      }
    </style>
  </defs>
  <g id="OBJECTS">
    <g>
      <image id="Layer_0" data-name="Layer 0" class="cls-4" width="890" height="1437" transform="translate(-281.9 -98.2) scale(.2)" xlink:href="PopcornLogo-1.png"/>
      <g class="cls-4">
        <text class="cls-3" transform="translate(-218.6 73.8)"><tspan x="0" y="0">MOVIE</tspan></text>
        <text class="cls-3" transform="translate(-229.7 99)"><tspan x="0" y="0">MASTER</tspan></text>
      </g>
      <g>
        <path class="cls-5" d="M-227.9,62.9c-1.1-1.4-2.9-2.3-4.7-1.7-1,.3-2,1-2.7,1.8-.4.4-.7.8-1,1.2-.2-1.2-.7-2.3-1.5-3.2-.9-1.1-2.2-1.9-3.6-1.9-1.3,0-2.6.7-3.3,1.9-.7,1.1-.9,2.5-.5,3.8.3.9.9,1.8,1.6,2.4-1-.2-2-.2-2.9.1-1.3.5-2.3,1.6-2.6,2.9-.2.8,0,1.6.2,2.4.2.8.5,1.5,1.1,2.1.9,1,2.4,1.6,3.8,1.3,1.3-.2,2.3-1.1,2.9-2.3.3,1.8,1.6,3.4,3.5,3.7,1,.2,2.2,0,3.1-.5,1-.5,1.7-1.4,1.8-2.6,0-1-.5-2-1.1-2.8,1.3.5,2.7.4,4-.1,1.5-.7,2.6-2.1,3-3.7.4-1.7,0-3.6-1-5h0Z"/>
        <path class="cls-2" d="M-235.2,66.1c0-.1,0-.3-.2-.2-.5.4-1.1.6-1.8.5-.5-.1-1-.5-1.1-1.1,0-.2-.3-.2-.3,0,0,.7-.2,1.4-.8,1.8-.5.4-1.2.6-1.8.4,0-.2-.3-.2-.3,0h0c0,.9-.3,1.6-.8,2.1,0,.1,0,.3.1.2,1.1,0,2.2.8,2.4,1.9,0,.1.2.2.3,0,.3-.8.9-1.4,1.7-1.7.8-.3,1.7,0,2.2.5.2.1.3-.1.2-.2-.6-.5-.8-1.3-.7-2.1,0-.8.5-1.6.9-2.2h0Z"/>
      </g>
      <polygon class="cls-1" points="-161.3 68.8 -159.1 76.9 -151.1 79.7 -158.1 84.3 -158.3 92.7 -164.9 87.5 -173 89.9 -170 82 -174.8 75.1 -166.4 75.5 -161.3 68.8"/>
    </g>
  </g>
</svg>