<?xml version="1.0" encoding="UTF-8"?>
<svg id="Layer_2" data-name="Layer 2" xmlns="http://www.w3.org/2000/svg" viewBox="0 0 1081 1921">
  <defs>
    <style>
      .cls-1 {
        fill: #000;
      }

      .cls-1, .cls-2, .cls-3, .cls-4 {
        stroke-width: 0px;
      }

      .cls-5 {
        stroke-width: 1.32px;
      }

      .cls-5, .cls-6, .cls-7 {
        fill: #fffde1;
        stroke-linejoin: round;
      }

      .cls-5, .cls-7 {
        stroke: #ffe8b0;
      }

      .cls-2 {
        fill: #ffa100;
      }

      .cls-2, .cls-3 {
        opacity: .2;
      }

      .cls-3 {
        fill: #ffe305;
      }

      .cls-8, .cls-7 {
        opacity: .3;
      }

      .cls-6 {
        stroke: #ffefcf;
        stroke-width: 1.59px;
      }

      .cls-7 {
        stroke-width: .97px;
      }

      .cls-4 {
        fill: #fff;
      }
    </style>
  </defs>
  <g id="Layer_1-2" data-name="Layer 1">
    <g>
      <g>
        <rect class="cls-1" x=".5" y=".5" width="1080" height="1920"/>
        <path class="cls-1" d="M1080,1v1919H1V1h1079M1081,0H0v1921h1081V0h0Z"/>
      </g>
      <g>
        <g class="cls-8">
          <g>
            <path class="cls-5" d="M909.5,379.28s0,.03,0,0h0Z"/>
            <path class="cls-5" d="M923.99,383.55c.02-.07.04-.13.05-.2.39-1.8.44-3.78-.28-5.51-1.62-3.91-6.93-5.34-10.66-3.8-.93.38-2.26.89-3.17,1.68-.21-.24-.42-.46-.59-.64-.81-.85-1.7-1.7-2.69-2.34-1.15-.74-2.69-.96-4.03-1.05-3.17-.2-6.58.96-8.77,3.3-2.36,2.52-2.75,6.07-1.96,9.32.8,3.26,2.97,6.24,6.08,7.48-.98.25-2.51.01-3.09-.06-2.11-.27-4.13-.77-6.26-.26-2.58.61-4.6,2.71-5.44,5.18-1.01,2.97.47,5.71,2.17,8.08,1.17,1.62,3.02,3.81,3.5,6.03-.06.25-.13.5-.2.75-.2.68-.45,1.35-.62,2.04-.44,1.79-.46,3.84-.14,5.65.56,3.08,2.47,5.72,5.09,7.38,2.51,1.6,5.67,2.27,8.62,1.9,3.51-.43,6.28-2.13,8.39-4.94,1.18-1.58,2.09-3.31,2.54-5.23.31-1.29.44-2.6.52-3.91,3.37,3.49,8.32,5.86,13.13,4.97,2.76-.51,5.51-2.37,6.15-5.25.33-1.47.04-3.05-.91-4.23-.17-.21-.36-.39-.56-.56,3.5-.39,6.98-1.02,9.96-3.06,3.71-2.54,6.19-6.81,6.76-11.25.54-4.21-1.2-8.23-4.1-11.25-2.98-3.1-7.18-4.05-11.36-3.43-2.92.43-5.67,1.58-8.13,3.2ZM909.5,379.27s0,0,0,0c0,0,0-.01,0-.02,0,0,0,0,0,0,.14-.04-.25.29,0,.01Z"/>
          </g>
        </g>
        <path class="cls-2" d="M903.74,392.67c-1.14,1.69-1.98,4.06-4.09,4.76-1.35.44-2.94.26-4.26-.18-1.34-.44-2.1-1.62-3.16-2.46-.27-.21-.83-.01-.65.39.76,1.75,1.6,3.83,1.06,5.76-.44,1.58-2.07,2.3-3.25,3.26-.25.2-.07.58.19.66,1.62.52,3.12,1.4,3.77,3.05.78,1.99.42,4.24-.32,6.19-.07.08-.14.17-.2.27-.24.4.33.75.62.47.02,0,.04-.01.07-.03.25-.16.48-.31.66-.55.01-.02.02-.04.03-.06.49.26,1.3-.49,1.68-.7.92-.53,2.13-.25,3.11-.02,1.79.42,3.85,1.37,4.52,3.22.1.28.58.42.72.08.34-.81.21-1.67.35-2.51.16-.95.42-1.94.86-2.8.67-1.34,1.92-2.61,3.55-2.4.41.05.72-.5.29-.73-1.85-.97-2.4-3.31-2.06-5.23.36-2.07,1.4-3.74,3.43-4.48.42-.15.34-.77-.12-.77-1.46-.02-2.86-.47-3.95-1.47-1.06-.97-1.71-2.27-2.1-3.63-.1-.35-.54-.35-.72-.08Z"/>
        <path class="cls-2" d="M933.75,387.01c-2.6,1.17-5.57,1.28-8.25.31-.3-.11-.54.16-.52.45.19,1.91-.61,3.88-2.1,5.1-1.45,1.19-3.46,1.58-5.26,1.08-.31-.09-.66.23-.48.55,1.09,1.97,1.05,4.4-.06,6.35-.07.04-.14.07-.21.11-.24.14-.24.41-.12.59.03.32.49.53.72.2.07-.1.12-.21.18-.31,3.27-1.72,7.37-1.52,10.44.57.37.25.81-.25.52-.59-1.14-1.31-1.25-3.36-.21-4.77,1.08-1.45,3.18-1.84,4.76-1.06.41.2.7-.45.35-.7-1.06-.75-1.39-2.12-1.26-3.35.16-1.48.92-2.83,1.95-3.88.31-.31-.02-.84-.44-.65Z"/>
      </g>
      <g class="cls-8">
        <g>
          <path class="cls-5" d="M86.5,644.28s0,.03,0,0h0Z"/>
          <path class="cls-5" d="M100.99,648.55c.02-.07.04-.13.05-.2.39-1.8.44-3.78-.28-5.51-1.62-3.91-6.93-5.34-10.66-3.8-.93.38-2.26.89-3.17,1.68-.21-.24-.42-.46-.59-.64-.81-.85-1.7-1.7-2.69-2.34-1.15-.74-2.69-.96-4.03-1.05-3.17-.2-6.58.96-8.77,3.3-2.36,2.52-2.75,6.07-1.96,9.32.8,3.26,2.97,6.24,6.08,7.48-.98.25-2.51.01-3.09-.06-2.11-.27-4.13-.77-6.26-.26-2.58.61-4.6,2.71-5.44,5.18-1.01,2.97.47,5.71,2.17,8.08,1.17,1.62,3.02,3.81,3.5,6.03-.06.25-.13.5-.2.75-.2.68-.45,1.35-.62,2.04-.44,1.79-.46,3.84-.14,5.65.56,3.08,2.47,5.72,5.09,7.38,2.51,1.6,5.67,2.27,8.62,1.9,3.51-.43,6.28-2.13,8.39-4.94,1.18-1.58,2.09-3.31,2.54-5.23.31-1.29.44-2.6.52-3.91,3.37,3.49,8.32,5.86,13.13,4.97,2.76-.51,5.51-2.37,6.15-5.25.33-1.47.04-3.05-.91-4.23-.17-.21-.36-.39-.56-.56,3.5-.39,6.98-1.02,9.96-3.06,3.71-2.54,6.19-6.81,6.76-11.25.54-4.21-1.2-8.23-4.1-11.25-2.98-3.1-7.18-4.05-11.36-3.43-2.92.43-5.67,1.58-8.13,3.2ZM86.5,644.27s0,0,0,0c0,0,0-.01,0-.02,0,0,0,0,0,0,.14-.04-.25.29,0,.01Z"/>
        </g>
        <path class="cls-2" d="M80.74,657.67c-1.14,1.69-1.98,4.06-4.09,4.76-1.35.44-2.94.26-4.26-.18-1.34-.44-2.1-1.62-3.16-2.46-.27-.21-.83-.01-.65.39.76,1.75,1.6,3.83,1.06,5.76-.44,1.58-2.07,2.3-3.25,3.26-.25.2-.07.58.19.66,1.62.52,3.12,1.4,3.77,3.05.78,1.99.42,4.24-.32,6.19-.07.08-.14.17-.2.27-.24.4.33.75.62.47.02,0,.04-.01.07-.03.25-.16.48-.31.66-.55.01-.02.02-.04.03-.06.49.26,1.3-.49,1.68-.7.92-.53,2.13-.25,3.11-.02,1.79.42,3.85,1.37,4.52,3.22.1.28.58.42.72.08.34-.81.21-1.67.35-2.51.16-.95.42-1.94.86-2.8.67-1.34,1.92-2.61,3.55-2.4.41.05.72-.5.29-.73-1.85-.97-2.4-3.31-2.06-5.23.36-2.07,1.4-3.74,3.43-4.48.42-.15.34-.77-.12-.77-1.46-.02-2.86-.47-3.95-1.47-1.06-.97-1.71-2.27-2.1-3.63-.1-.35-.54-.35-.72-.08Z"/>
        <path class="cls-2" d="M110.75,652.01c-2.6,1.17-5.57,1.28-8.25.31-.3-.11-.54.16-.52.45.19,1.91-.61,3.88-2.1,5.1-1.45,1.19-3.46,1.58-5.26,1.08-.31-.09-.66.23-.48.55,1.09,1.97,1.05,4.4-.06,6.35-.07.04-.14.07-.21.11-.24.14-.24.41-.12.59.03.32.49.53.72.2.07-.1.12-.21.18-.31,3.27-1.72,7.37-1.52,10.44.57.37.25.81-.25.52-.59-1.14-1.31-1.25-3.36-.21-4.77,1.08-1.45,3.18-1.84,4.76-1.06.41.2.7-.45.35-.7-1.06-.75-1.39-2.12-1.26-3.35.16-1.48.92-2.83,1.95-3.88.31-.31-.02-.84-.44-.65Z"/>
      </g>
      <g class="cls-8">
        <g>
          <path class="cls-5" d="M892.5,1371.28s0,.03,0,0h0Z"/>
          <path class="cls-5" d="M906.99,1375.55c.02-.07.04-.13.05-.2.39-1.8.44-3.78-.28-5.51-1.62-3.91-6.93-5.34-10.66-3.8-.93.38-2.26.89-3.17,1.68-.21-.24-.42-.46-.59-.64-.81-.85-1.7-1.7-2.69-2.34-1.15-.74-2.69-.96-4.03-1.05-3.17-.2-6.58.96-8.77,3.3-2.36,2.52-2.75,6.07-1.96,9.32.8,3.26,2.97,6.24,6.08,7.48-.98.25-2.51.01-3.09-.06-2.11-.27-4.13-.77-6.26-.26-2.58.61-4.6,2.71-5.44,5.18-1.01,2.97.47,5.71,2.17,8.08,1.17,1.62,3.02,3.81,3.5,6.03-.06.25-.13.5-.2.75-.2.68-.45,1.35-.62,2.04-.44,1.79-.46,3.84-.14,5.65.56,3.08,2.47,5.72,5.09,7.38,2.51,1.6,5.67,2.27,8.62,1.9,3.51-.43,6.28-2.13,8.39-4.94,1.18-1.58,2.09-3.31,2.54-5.23.31-1.29.44-2.6.52-3.91,3.37,3.49,8.32,5.86,13.13,4.97,2.76-.51,5.51-2.37,6.15-5.25.33-1.47.04-3.05-.91-4.23-.17-.21-.36-.39-.56-.56,3.5-.39,6.98-1.02,9.96-3.06,3.71-2.54,6.19-6.81,6.76-11.25.54-4.21-1.2-8.23-4.1-11.25-2.98-3.1-7.18-4.05-11.36-3.43-2.92.43-5.67,1.58-8.13,3.2ZM892.5,1371.27s0,0,0,0c0,0,0-.01,0-.02,0,0,0,0,0,0,.14-.04-.25.29,0,.01Z"/>
        </g>
        <path class="cls-2" d="M886.74,1384.67c-1.14,1.69-1.98,4.06-4.09,4.76-1.35.44-2.94.26-4.26-.18-1.34-.44-2.1-1.62-3.16-2.46-.27-.21-.83-.01-.65.39.76,1.75,1.6,3.83,1.06,5.76-.44,1.58-2.07,2.3-3.25,3.26-.25.2-.07.58.19.66,1.62.52,3.12,1.4,3.77,3.05.78,1.99.42,4.24-.32,6.19-.07.08-.14.17-.2.27-.24.4.33.75.62.47.02,0,.04-.01.07-.03.25-.16.48-.31.66-.55.01-.02.02-.04.03-.06.49.26,1.3-.49,1.68-.7.92-.53,2.13-.25,3.11-.02,1.79.42,3.85,1.37,4.52,3.22.1.28.58.42.72.08.34-.81.21-1.67.35-2.51.16-.95.42-1.94.86-2.8.67-1.34,1.92-2.61,3.55-2.4.41.05.72-.5.29-.73-1.85-.97-2.4-3.31-2.06-5.23.36-2.07,1.4-3.74,3.43-4.48.42-.15.34-.77-.12-.77-1.46-.02-2.86-.47-3.95-1.47-1.06-.97-1.71-2.27-2.1-3.63-.1-.35-.54-.35-.72-.08Z"/>
        <path class="cls-2" d="M916.75,1379.01c-2.6,1.17-5.57,1.28-8.25.31-.3-.11-.54.16-.52.45.19,1.91-.61,3.88-2.1,5.1-1.45,1.19-3.46,1.58-5.26,1.08-.31-.09-.66.23-.48.55,1.09,1.97,1.05,4.4-.06,6.35-.07.04-.14.07-.21.11-.24.14-.24.41-.12.59.03.32.49.53.72.2.07-.1.12-.21.18-.31,3.27-1.72,7.37-1.52,10.44.57.37.25.81-.25.52-.59-1.14-1.31-1.25-3.36-.21-4.77,1.08-1.45,3.18-1.84,4.76-1.06.41.2.7-.45.35-.7-1.06-.75-1.39-2.12-1.26-3.35.16-1.48.92-2.83,1.95-3.88.31-.31-.02-.84-.44-.65Z"/>
      </g>
      <g>
        <g class="cls-8">
          <g>
            <path class="cls-5" d="M179.5,1718.28s0,.03,0,0h0Z"/>
            <path class="cls-5" d="M193.99,1722.55c.02-.07.04-.13.05-.2.39-1.8.44-3.78-.28-5.51-1.62-3.91-6.93-5.34-10.66-3.8-.93.38-2.26.89-3.17,1.68-.21-.24-.42-.46-.59-.64-.81-.85-1.7-1.7-2.69-2.34-1.15-.74-2.69-.96-4.03-1.05-3.17-.2-6.58.96-8.77,3.3-2.36,2.52-2.75,6.07-1.96,9.32.8,3.26,2.97,6.24,6.08,7.48-.98.25-2.51.01-3.09-.06-2.11-.27-4.13-.77-6.26-.26-2.58.61-4.6,2.71-5.44,5.18-1.01,2.97.47,5.71,2.17,8.08,1.17,1.62,3.02,3.81,3.5,6.03-.06.25-.13.5-.2.75-.2.68-.45,1.35-.62,2.04-.44,1.79-.46,3.84-.14,5.65.56,3.08,2.47,5.72,5.09,7.38,2.51,1.6,5.67,2.27,8.62,1.9,3.51-.43,6.28-2.13,8.39-4.94,1.18-1.58,2.09-3.31,2.54-5.23.31-1.29.44-2.6.52-3.91,3.37,3.49,8.32,5.86,13.13,4.97,2.76-.51,5.51-2.37,6.15-5.25.33-1.47.04-3.05-.91-4.23-.17-.21-.36-.39-.56-.56,3.5-.39,6.98-1.02,9.96-3.06,3.71-2.54,6.19-6.81,6.76-11.25.54-4.21-1.2-8.23-4.1-11.25-2.98-3.1-7.18-4.05-11.36-3.43-2.92.43-5.67,1.58-8.13,3.2ZM179.5,1718.27s0,0,0,0c0,0,0-.01,0-.02,0,0,0,0,0,0,.14-.04-.25.29,0,.01Z"/>
          </g>
        </g>
        <path class="cls-2" d="M173.74,1731.67c-1.14,1.69-1.98,4.06-4.09,4.76-1.35.44-2.94.26-4.26-.18-1.34-.44-2.1-1.62-3.16-2.46-.27-.21-.83-.01-.65.39.76,1.75,1.6,3.83,1.06,5.76-.44,1.58-2.07,2.3-3.25,3.26-.25.2-.07.58.19.66,1.62.52,3.12,1.4,3.77,3.05.78,1.99.42,4.24-.32,6.19-.07.08-.14.17-.2.27-.24.4.33.75.62.47.02,0,.04-.01.07-.03.25-.16.48-.31.66-.55.01-.02.02-.04.03-.06.49.26,1.3-.49,1.68-.7.92-.53,2.13-.25,3.11-.02,1.79.42,3.85,1.37,4.52,3.22.1.28.58.42.72.08.34-.81.21-1.67.35-2.51.16-.95.42-1.94.86-2.8.67-1.34,1.92-2.61,3.55-2.4.41.05.72-.5.29-.73-1.85-.97-2.4-3.31-2.06-5.23.36-2.07,1.4-3.74,3.43-4.48.42-.15.34-.77-.12-.77-1.46-.02-2.86-.47-3.95-1.47-1.06-.97-1.71-2.27-2.1-3.63-.1-.35-.54-.35-.72-.08Z"/>
        <path class="cls-2" d="M203.75,1726.01c-2.6,1.17-5.57,1.28-8.25.31-.3-.11-.54.16-.52.45.19,1.91-.61,3.88-2.1,5.1-1.45,1.19-3.46,1.58-5.26,1.08-.31-.09-.66.23-.48.55,1.09,1.97,1.05,4.4-.06,6.35-.07.04-.14.07-.21.11-.24.14-.24.41-.12.59.03.32.49.53.72.2.07-.1.12-.21.18-.31,3.27-1.72,7.37-1.52,10.44.57.37.25.81-.25.52-.59-1.14-1.31-1.25-3.36-.21-4.77,1.08-1.45,3.18-1.84,4.76-1.06.41.2.7-.45.35-.7-1.06-.75-1.39-2.12-1.26-3.35.16-1.48.92-2.83,1.95-3.88.31-.31-.02-.84-.44-.65Z"/>
      </g>
      <g>
        <path class="cls-7" d="M932.42,1109.41c-.17-3.29-2.19-6.46-5.43-7.44-1.89-.57-4.04-.4-5.97-.05-.97.18-1.93.45-2.81.87.85-2.01,1.18-4.23.92-6.39-.3-2.51-1.35-5.12-3.54-6.56-2.03-1.33-4.75-1.53-6.96-.55-2.23.99-3.91,3-4.61,5.33-.52,1.74-.47,3.6.04,5.34-1.24-1.33-2.81-2.33-4.6-2.74-2.42-.54-5.14.08-6.92,1.85-1.05,1.04-1.73,2.43-2.2,3.82-.47,1.37-.7,2.85-.49,4.29.36,2.55,2.13,4.84,4.51,5.83,2.2.91,4.75.64,6.75-.58-1.42,3.03-.92,6.8,1.48,9.25,1.39,1.41,3.3,2.32,5.27,2.49,2,.17,4.11-.4,5.29-2.12,1.06-1.53,1.27-3.48,1.16-5.33,1.42,2.06,3.7,3.47,6.18,3.89,3.04.52,6.08-.55,8.33-2.61,2.36-2.17,3.75-5.36,3.59-8.57Z"/>
        <path class="cls-2" d="M917.9,1106.88c.29-.12.23-.58-.11-.56-1.13.06-2.34-.22-3.16-1.06-.68-.71-.99-1.81-.6-2.73.12-.28-.27-.61-.47-.32-.71,1.03-1.78,1.85-3.04,2.04-1.19.18-2.46-.26-3.21-1.21.11-.28-.26-.58-.46-.31-.03.04-.06.08-.09.11-.03.02-.05.05-.07.09-.85,1.06-1.99,1.82-3.31,2.18-.26.07-.23.41-.04.53,1.72,1.06,2.48,3.4,1.71,5.26-.1.25.17.55.42.37,1.22-.89,2.79-1.29,4.27-.89,1.44.39,2.61,1.58,2.93,3.05.1.36.62.17.55-.19-.39-1.37.11-2.85,1-3.91.97-1.15,2.32-1.88,3.69-2.45Z"/>
      </g>
      <g class="cls-8">
        <path class="cls-6" d="M201.86,1342.28c-1.04-1.6-2.66-2.91-4.56-3.3-1.01-.2-2.07-.09-2.87.6-.71.61-1.1,1.53-1.85,2.08-1.05.76-1.96-.34-2.42-1.2-.5-.94-.97-1.82-1.88-2.43-1.64-1.11-3.78-1.03-5.34.18-.79.62-1.32,1.48-1.59,2.44-.27.95-.32,1.93-.55,2.89-.23.96-.67,1.8-1.51,2.37-.86.58-1.95.76-2.94.46-1.03-.32-1.93-.96-2.97-1.28-.92-.29-1.89-.39-2.85-.32-2,.14-3.86,1.08-5.16,2.6-1.25,1.46-1.91,3.39-1.81,5.31.12,2.2,1.16,4.19,2.41,5.96.64.9,1.34,1.76,2.05,2.6.05.06.11.09.17.11.08.19.16.38.21.59.15.6.19,1.23.26,1.85.11,1.14.31,2.26.64,3.36.65,2.15,1.73,4.2,3.3,5.82,2.65,2.74,6.78,4.17,10.5,3,2.37-.75,4.29-2.49,6.15-4.07,1.92-1.63,3.93-3.24,5.66-5.07,1.65-1.75,2.79-3.9,3.98-5.97,1.14-1.98,2.23-4.01,3.06-6.14,1.53-3.91,2.33-8.69-.1-12.42Z"/>
        <path class="cls-2" d="M194.47,1346.24c-.72.02-1.44.14-2.13.35-.79.23-1.63.71-2.47.62-2.19-.22-.3-3.34-1.27-4.53-.92-1.13-2.84.57-3.51,1.22-1.21,1.17-2.04,2.62-2.7,4.15-.34.78-.73,1.76-1.59,2.07-.42.15-.9.12-1.34.13-.44,0-.88.02-1.33.05-1.6.12-3.2.59-4.29,1.83-1.02,1.16-1.17,2.71-.47,4.08.39.77.98,1.41,1.61,1.99.33.3.72.57,1.02.9.09.1.22.19.11.29-.08.07-.61.04-.72.06-1.59.19-3.11.88-4.32,1.92-.61.52-1.14,1.13-1.57,1.81-.2.31.1.64.38.61,1.28,2.81,3.05,5.42,5.39,7.47,1.24,1.08,2.64,1.98,4.15,2.62.68.29,1.42.53,2.17.48.82-.06,1.53-.47,2.19-.92,1.44-.99,2.87-2.08,4.04-3.38,1.15-1.26,1.89-2.74,2.42-4.35.53-1.6.91-3.25,1.62-4.78.77-1.64,1.85-3.12,2.94-4.56,1-1.32,2.08-2.61,2.85-4.09.64-1.23,1.35-3.07.55-4.38-.76-1.24-2.37-1.7-3.74-1.67Z"/>
        <path class="cls-6" d="M207.46,1344.25c-1.02-.85-2.27-1.43-3.6-1.57-1.6-.16-3.17.39-4.47,1.3-1.45,1-2.54,2.43-3.45,3.92-.47.77-.88,1.57-1.33,2.35-.22.39-.47.81-.84,1.08-.4.29-.87.27-1.33.15-.67-.18-1.29-.44-2-.49-.69-.05-1.38.04-2.04.24-1.33.41-2.52,1.25-3.34,2.37-1.81,2.46-1.68,5.77-.63,8.5.62,1.63,1.28,3.16.98,4.94-.13.75-.4,1.5-.79,2.15-.34.57-.95,1.52-1.68,1.59-.18.02-.35-.05-.51-.14-.1-.06-.19-.12-.28-.2,0,0,0,0-.01,0-.3-.25-.57-.56-.83-.88-.53-.65-1.03-1.32-1.55-1.98-1.07-1.33-2.19-2.63-3.39-3.85-2.32-2.36-4.96-4.45-8.01-5.77-1.42-.61-2.98-1.06-4.54-.87-1.34.16-2.55.84-3.45,1.83-2.01,2.2-2.34,5.37-1.15,8.05.67,1.49,1.73,2.77,2.97,3.82.62.52,1.29.95,1.98,1.37.61.38,1.52.9,1.63,1.69.11.79-.76,1.34-1.21,1.86-.45.52-.78,1.15-.97,1.81-.39,1.32-.29,2.75.21,4.02,1.15,2.97,4.33,4.67,7.3,5.23,2.73.51,5.62.08,8.15-1.05,2.55-1.14,4.81-3.04,6.22-5.46.84-1.44,1.37-3.04,3.03-3.73,1.62-.67,3.45-.4,5.09.05,1.64.45,3.25,1.08,4.95,1.25,1.56.16,3.16-.07,4.63-.64,2.83-1.09,5.01-3.5,5.76-6.44.36-1.4.4-2.86.09-4.27-.38-1.69-1.19-3.32-1.05-5.1.13-1.64.9-3.14,1.47-4.66.56-1.49.95-3.07,1.04-4.66.18-2.94-.74-5.88-3.05-7.8Z"/>
      </g>
      <g class="cls-8">
        <path class="cls-6" d="M136.86,147.28c-1.04-1.6-2.66-2.91-4.56-3.3-1.01-.2-2.07-.09-2.87.6-.71.61-1.1,1.53-1.85,2.08-1.05.76-1.96-.34-2.42-1.2-.5-.94-.97-1.82-1.88-2.43-1.64-1.11-3.78-1.03-5.34.18-.79.62-1.32,1.48-1.59,2.44-.27.95-.32,1.93-.55,2.89-.23.96-.67,1.8-1.51,2.37-.86.58-1.95.76-2.94.46-1.03-.32-1.93-.96-2.97-1.28-.92-.29-1.89-.39-2.85-.32-2,.14-3.86,1.08-5.16,2.6-1.25,1.46-1.91,3.39-1.81,5.31.12,2.2,1.16,4.19,2.41,5.96.64.9,1.34,1.76,2.05,2.6.05.06.11.09.17.11.08.19.16.38.21.59.15.6.19,1.23.26,1.85.11,1.14.31,2.26.64,3.36.65,2.15,1.73,4.2,3.3,5.82,2.65,2.74,6.78,4.17,10.5,3,2.37-.75,4.29-2.49,6.15-4.07,1.92-1.63,3.93-3.24,5.66-5.07,1.65-1.75,2.79-3.9,3.98-5.97,1.14-1.98,2.23-4.01,3.06-6.14,1.53-3.91,2.33-8.69-.1-12.42Z"/>
        <path class="cls-2" d="M129.47,151.24c-.72.02-1.44.14-2.13.35-.79.23-1.63.71-2.47.62-2.19-.22-.3-3.34-1.27-4.53-.92-1.13-2.84.57-3.51,1.22-1.21,1.17-2.04,2.62-2.7,4.15-.34.78-.73,1.76-1.59,2.07-.42.15-.9.12-1.34.13-.44,0-.88.02-1.33.05-1.6.12-3.2.59-4.29,1.83-1.02,1.16-1.17,2.71-.47,4.08.39.77.98,1.41,1.61,1.99.33.3.72.57,1.02.9.09.1.22.19.11.29-.08.07-.61.04-.72.06-1.59.19-3.11.88-4.32,1.92-.61.52-1.14,1.13-1.57,1.81-.2.31.1.64.38.61,1.28,2.81,3.05,5.42,5.39,7.47,1.24,1.08,2.64,1.98,4.15,2.62.68.29,1.42.53,2.17.48.82-.06,1.53-.47,2.19-.92,1.44-.99,2.87-2.08,4.04-3.38,1.15-1.26,1.89-2.74,2.42-4.35.53-1.6.91-3.25,1.62-4.78.77-1.64,1.85-3.12,2.94-4.56,1-1.32,2.08-2.61,2.85-4.09.64-1.23,1.35-3.07.55-4.38-.76-1.24-2.37-1.7-3.74-1.67Z"/>
        <path class="cls-6" d="M142.46,149.25c-1.02-.85-2.27-1.43-3.6-1.57-1.6-.16-3.17.39-4.47,1.3-1.45,1-2.54,2.43-3.45,3.92-.47.77-.88,1.57-1.33,2.35-.22.39-.47.81-.84,1.08-.4.29-.87.27-1.33.15-.67-.18-1.29-.44-2-.49-.69-.05-1.38.04-2.04.24-1.33.41-2.52,1.25-3.34,2.37-1.81,2.46-1.68,5.77-.63,8.5.62,1.63,1.28,3.16.98,4.94-.13.75-.4,1.5-.79,2.15-.34.57-.95,1.52-1.68,1.59-.18.02-.35-.05-.51-.14-.1-.06-.19-.12-.28-.2,0,0,0,0-.01,0-.3-.25-.57-.56-.83-.88-.53-.65-1.03-1.32-1.55-1.98-1.07-1.33-2.19-2.63-3.39-3.85-2.32-2.36-4.96-4.45-8.01-5.77-1.42-.61-2.98-1.06-4.54-.87-1.34.16-2.55.84-3.45,1.83-2.01,2.2-2.34,5.37-1.15,8.05.67,1.49,1.73,2.77,2.97,3.82.62.52,1.29.95,1.98,1.37.61.38,1.52.9,1.63,1.69.11.79-.76,1.34-1.21,1.86-.45.52-.78,1.15-.97,1.81-.39,1.32-.29,2.75.21,4.02,1.15,2.97,4.33,4.67,7.3,5.23,2.73.51,5.62.08,8.15-1.05,2.55-1.14,4.81-3.04,6.22-5.46.84-1.44,1.37-3.04,3.03-3.73,1.62-.67,3.45-.4,5.09.05,1.64.45,3.25,1.08,4.95,1.25,1.56.16,3.16-.07,4.63-.64,2.83-1.09,5.01-3.5,5.76-6.44.36-1.4.4-2.86.09-4.27-.38-1.69-1.19-3.32-1.05-5.1.13-1.64.9-3.14,1.47-4.66.56-1.49.95-3.07,1.04-4.66.18-2.94-.74-5.88-3.05-7.8Z"/>
      </g>
      <polygon class="cls-3" points="730.07 198.38 737.79 206.08 748.52 204.09 743.58 213.81 748.79 223.39 738.01 221.7 730.51 229.61 728.79 218.84 718.94 214.15 728.65 209.19 730.07 198.38"/>
      <polygon class="cls-3" points="609.54 1343.15 613.38 1346.98 618.72 1345.99 616.26 1350.83 618.85 1355.59 613.49 1354.75 609.76 1358.69 608.9 1353.33 604 1351 608.83 1348.53 609.54 1343.15"/>
      <polygon class="cls-3" points="754.94 159.42 758.78 163.25 764.11 162.26 761.66 167.09 764.25 171.86 758.89 171.01 755.15 174.95 754.3 169.59 749.4 167.26 754.23 164.79 754.94 159.42"/>
      <polygon class="cls-3" points="349.01 724.89 352.85 728.72 358.18 727.73 355.73 732.56 358.32 737.33 352.96 736.48 349.22 740.42 348.37 735.06 343.47 732.73 348.3 730.27 349.01 724.89"/>
      <polygon class="cls-3" points="181.47 1553.34 185.31 1557.17 190.64 1556.18 188.19 1561.01 190.78 1565.78 185.42 1564.93 181.68 1568.87 180.83 1563.51 175.93 1561.18 180.76 1558.71 181.47 1553.34"/>
      <polygon class="cls-3" points="818.79 950.52 820.48 955.68 825.68 957.21 821.3 960.41 821.45 965.83 817.05 962.65 811.94 964.46 813.61 959.3 810.3 955 815.72 954.99 818.79 950.52"/>
      <polygon class="cls-3" points="883.6 938.44 886.4 950.57 898 955.13 887.32 961.55 886.56 973.98 877.15 965.81 865.09 968.93 869.95 957.47 863.26 946.96 875.67 948.04 883.6 938.44"/>
      <polygon class="cls-3" points="985.82 1612.27 988.04 1620.41 996.01 1623.19 988.95 1627.82 988.77 1636.25 982.18 1630.97 974.1 1633.4 977.09 1625.51 972.28 1618.58 980.71 1618.98 985.82 1612.27"/>
      <polygon class="cls-3" points="769.15 1781.48 773.74 1798.27 790.18 1804.02 775.62 1813.57 775.24 1830.98 761.65 1820.09 744.96 1825.1 751.13 1808.82 741.2 1794.51 758.6 1795.34 769.15 1781.48"/>
      <polygon class="cls-3" points="183.15 920.48 187.74 937.27 204.18 943.02 189.62 952.57 189.24 969.98 175.65 959.09 158.96 964.1 165.13 947.82 155.2 933.51 172.6 934.34 183.15 920.48"/>
      <polygon class="cls-3" points="61.15 1811.48 65.74 1828.27 82.18 1834.02 67.62 1843.57 67.24 1860.98 53.65 1850.09 36.96 1855.1 43.13 1838.82 33.2 1824.51 50.6 1825.34 61.15 1811.48"/>
      <polygon class="cls-3" points="129.15 238.48 133.74 255.27 150.18 261.02 135.62 270.57 135.24 287.98 121.65 277.09 104.96 282.1 111.13 265.82 101.2 251.51 118.6 252.34 129.15 238.48"/>
      <polygon class="cls-3" points="795.15 579.48 799.74 596.27 816.18 602.02 801.62 611.57 801.24 628.98 787.65 618.09 770.96 623.1 777.13 606.82 767.2 592.51 784.6 593.34 795.15 579.48"/>
      <polygon class="cls-3" points="753.81 325.66 756.04 333.79 764.01 336.58 756.95 341.21 756.76 349.64 750.18 344.36 742.1 346.79 745.08 338.9 740.27 331.97 748.7 332.37 753.81 325.66"/>
      <circle class="cls-4" cx="725.63" cy="322.01" r="2.23"/>
      <path class="cls-4" d="M909.18,997.56c0,1.23-1,2.23-2.23,2.23s-2.23-1-2.23-2.23,1-2.23,2.23-2.23,2.23,1,2.23,2.23Z"/>
      <path class="cls-4" d="M134.28,423.46c0,1.23-.47,2.23-1.05,2.23s-1.05-1-1.05-2.23.47-2.23,1.05-2.23,1.05,1,1.05,2.23Z"/>
      <g>
        <polygon class="cls-3" points="788.16 1033.36 792.06 1047.6 806 1052.47 793.65 1060.57 793.33 1075.33 781.8 1066.1 767.66 1070.35 772.88 1056.54 764.47 1044.41 779.22 1045.11 788.16 1033.36"/>
        <polygon class="cls-3" points="674.94 1601.06 665.13 1599.44 658.24 1606.6 656.75 1596.77 647.82 1592.42 656.71 1587.97 658.08 1578.12 665.06 1585.2 674.84 1583.46 670.27 1592.29 674.94 1601.06"/>
        <path class="cls-4" d="M270.13,1496.16c0-3.77-1.75-6.83-3.9-6.83s-3.9,3.06-3.9,6.83,1.75,6.83,3.9,6.83,3.9-3.06,3.9-6.83Z"/>
        <path class="cls-3" d="M181.74,1119.85c0,2.16-1.75,3.9-3.9,3.9s-3.9-1.75-3.9-3.9,1.75-3.9,3.9-3.9,3.9,1.75,3.9,3.9Z"/>
        <path class="cls-4" d="M405.8,1593.71c0,2.16-1.75,3.9-3.9,3.9s-3.9-1.75-3.9-3.9,1.75-3.9,3.9-3.9,3.9,1.75,3.9,3.9Z"/>
        <path class="cls-4" d="M803.59,1221.72c0,2.16-1.75,3.9-3.9,3.9s-3.9-1.75-3.9-3.9,1.75-3.9,3.9-3.9,3.9,1.75,3.9,3.9Z"/>
        <path class="cls-4" d="M418.55,1032.05c0,2.16-1.75,3.9-3.9,3.9s-3.9-1.75-3.9-3.9,1.75-3.9,3.9-3.9,3.9,1.75,3.9,3.9Z"/>
        <path class="cls-4" d="M235.82,1322.07c0,2.16-1.75,3.9-3.9,3.9s-3.9-1.75-3.9-3.9,1.75-3.9,3.9-3.9,3.9,1.75,3.9,3.9Z"/>
      </g>
      <path class="cls-4" d="M570.95,704.31c0,1.23-1,2.23-2.23,2.23s-2.23-1-2.23-2.23,1-2.23,2.23-2.23,2.23,1,2.23,2.23Z"/>
      <path class="cls-4" d="M570.95,704.31c0,1.23-1,2.23-2.23,2.23s-2.23-1-2.23-2.23,1-2.23,2.23-2.23,2.23,1,2.23,2.23Z"/>
      <path class="cls-4" d="M570.95,704.31c0,1.23-1,2.23-2.23,2.23s-2.23-1-2.23-2.23,1-2.23,2.23-2.23,2.23,1,2.23,2.23Z"/>
      <path class="cls-4" d="M570.95,704.31c0,1.23-1,2.23-2.23,2.23s-2.23-1-2.23-2.23,1-2.23,2.23-2.23,2.23,1,2.23,2.23Z"/>
      <path class="cls-4" d="M570.95,704.31c0,1.23-1,2.23-2.23,2.23s-2.23-1-2.23-2.23,1-2.23,2.23-2.23,2.23,1,2.23,2.23Z"/>
      <path class="cls-4" d="M570.95,704.31c0,1.23-1,2.23-2.23,2.23s-2.23-1-2.23-2.23,1-2.23,2.23-2.23,2.23,1,2.23,2.23Z"/>
    </g>
  </g>
</svg>